<svg width="251" height="258" viewBox="0 0 251 258" fill="none" xmlns="http://www.w3.org/2000/svg">
<path d="M65.5 213H57V257.607H125V213H116.5V0.606842C85.5 0.606842 65.5 23.1068 65.5 53.1068V213Z" fill="#00F68D"/>
<path d="M172 0.106842L125 0.106842C125 20.8046 125 24.3022 125 45H172C194 45 205.5 57.9068 205.5 79.1068C205.5 100.307 197 113 172 113L125 113.286V158.393L172 158.107C198.333 159.607 251 145.907 251 79.1068C251 12.3068 198.333 -1.39316 172 0.106842Z" fill="#00F58C"/>
<path d="M32 113H55.5V158.107H32V164H0V107H32V113Z" fill="#00F58C"/>
</svg>
