<svg width="564" height="258" viewBox="0 0 564 258" fill="none" xmlns="http://www.w3.org/2000/svg">
<path d="M65.5 213H57V257.607H125V213H116.5V0.606842C85.5 0.606842 65.5 23.1068 65.5 53.1068V213Z" fill="#00F68D"/>
<path d="M172 0.106842L125 0.106842C125 20.8046 125 24.3022 125 45H172C194 45 205.5 57.9068 205.5 79.1068C205.5 100.307 197 113 172 113L125 113.286V158.393L172 158.107C198.333 159.607 251 145.907 251 79.1068C251 12.3068 198.333 -1.39316 172 0.106842Z" fill="#00F58C"/>
<path d="M32 113H55.5V158.107H32V164H0V107H32V113Z" fill="#00F58C"/>
<path d="M266.995 158.393V104.939H277.401V158.393H266.995ZM272.25 96.6908C270.44 96.6908 268.886 96.0875 267.587 94.8811C266.311 93.6515 265.673 92.1898 265.673 90.4962C265.673 88.7793 266.311 87.3177 267.587 86.1112C268.886 84.8816 270.44 84.2668 272.25 84.2668C274.06 84.2668 275.602 84.8816 276.879 86.1112C278.178 87.3177 278.827 88.7793 278.827 90.4962C278.827 92.1898 278.178 93.6515 276.879 94.8811C275.602 96.0875 274.06 96.6908 272.25 96.6908Z" fill="white"/>
<path d="M291.399 178.439V104.939H301.561V113.604H302.431C303.034 112.49 303.905 111.203 305.041 109.741C306.178 108.28 307.756 107.003 309.774 105.913C311.793 104.799 314.461 104.243 317.779 104.243C322.094 104.243 325.945 105.333 329.333 107.514C332.72 109.695 335.376 112.838 337.302 116.945C339.251 121.052 340.225 125.993 340.225 131.77C340.225 137.547 339.262 142.501 337.337 146.63C335.411 150.737 332.766 153.904 329.402 156.131C326.038 158.335 322.198 159.437 317.883 159.437C314.635 159.437 311.978 158.892 309.914 157.802C307.872 156.711 306.271 155.435 305.111 153.973C303.951 152.512 303.058 151.213 302.431 150.076H301.805V178.439H291.399ZM301.596 131.666C301.596 135.424 302.141 138.719 303.232 141.549C304.322 144.38 305.9 146.596 307.965 148.196C310.03 149.774 312.558 150.563 315.551 150.563C318.66 150.563 321.259 149.739 323.347 148.092C325.435 146.422 327.012 144.16 328.08 141.306C329.17 138.452 329.715 135.239 329.715 131.666C329.715 128.139 329.182 124.972 328.115 122.165C327.07 119.358 325.493 117.142 323.382 115.518C321.293 113.894 318.683 113.082 315.551 113.082C312.535 113.082 309.983 113.859 307.895 115.414C305.83 116.968 304.264 119.137 303.197 121.922C302.13 124.706 301.596 127.954 301.596 131.666Z" fill="white"/>
<path d="M374.922 159.472C369.655 159.472 365.12 158.347 361.315 156.096C357.533 153.823 354.61 150.633 352.545 146.526C350.503 142.396 349.482 137.559 349.482 132.014C349.482 126.539 350.503 121.713 352.545 117.537C354.61 113.361 357.487 110.101 361.176 107.758C364.888 105.414 369.226 104.243 374.191 104.243C377.207 104.243 380.131 104.741 382.961 105.739C385.792 106.737 388.332 108.303 390.583 110.437C392.833 112.572 394.608 115.344 395.907 118.755C397.206 122.142 397.856 126.26 397.856 131.109V134.798H360V127.003H387.659C387.659 124.265 387.102 121.84 385.989 119.729C384.875 117.595 383.309 115.913 381.291 114.683C379.295 113.453 376.952 112.838 374.261 112.838C371.338 112.838 368.785 113.558 366.605 114.996C364.447 116.411 362.776 118.267 361.593 120.564C360.433 122.838 360 124.334 360 127.003V134.893C360 138.466 360.48 140.679 361.732 143.185C363.008 145.691 364.783 147.605 367.057 148.927C369.331 150.227 371.987 150.876 375.026 150.876C376.999 150.876 378.797 150.598 380.421 150.041C382.045 149.461 383.448 148.602 384.632 147.466C385.815 146.329 386.72 144.925 387.346 143.255L397.195 145.03C396.406 147.93 394.991 150.47 392.949 152.651C390.931 154.809 388.39 156.491 385.328 157.697C382.288 158.88 378.82 159.472 374.922 159.472Z" fill="white"/>
<path d="M419.807 84.2668V158.393H409.401V84.2668H419.807Z" fill="white"/>
<path d="M433.806 158.393V104.939H444.211V158.393H433.806ZM439.061 96.6908C437.251 96.6908 435.696 96.0875 434.397 94.8811C433.121 93.6515 432.483 92.1898 432.483 90.4962C432.483 88.7793 433.121 87.3177 434.397 86.1112C435.696 84.8816 437.251 84.2668 439.061 84.2668C440.87 84.2668 442.413 84.8816 443.689 86.1112C444.988 87.3177 445.638 88.7793 445.638 90.4962C445.638 92.1898 444.988 93.6515 443.689 94.8811C442.413 96.0875 440.87 96.6908 439.061 96.6908Z" fill="white"/>
<path d="M468.615 126.655V158.393H458.21V104.939H468.198V113.639H468.859C470.089 110.808 472.014 108.535 474.636 106.818C477.281 105.101 480.61 104.243 484.624 104.243C488.266 104.243 491.457 105.008 494.194 106.539C496.932 108.048 499.055 110.298 500.563 113.291C502.071 116.284 502.825 119.984 502.825 124.392V158.393H492.419V125.645C492.419 121.771 491.41 118.743 489.392 116.562C487.373 114.358 484.601 113.256 481.074 113.256C478.661 113.256 476.515 113.778 474.636 114.822C472.78 115.866 471.307 117.397 470.216 119.416C469.149 121.411 468.615 123.824 468.615 126.655Z" fill="white"/>
<path d="M540.431 159.494C535.057 159.494 530.429 158.346 526.547 156.049C522.688 153.729 519.705 150.474 517.598 146.284C515.514 142.07 514.473 137.134 514.473 131.476C514.473 125.888 515.514 120.964 517.598 116.703C519.705 112.441 522.64 109.115 526.404 106.724C530.192 104.333 534.619 103.137 539.686 103.137C542.763 103.137 545.746 103.646 548.635 104.664C551.523 105.682 554.115 107.28 556.412 109.459C558.708 111.637 560.519 114.466 561.845 117.946C563.171 121.402 563.833 125.604 563.833 130.552V134.316H525.064V126.362H553.429C553.429 123.568 552.86 121.094 551.724 118.94C550.588 116.762 548.99 115.046 546.93 113.791C544.894 112.536 542.503 111.909 539.757 111.909C536.774 111.909 534.17 112.643 531.944 114.111C529.743 115.555 528.038 117.449 526.831 119.792C525.647 122.112 525.064 123.639 525.064 126.362V134.316C525.064 137.962 525.694 140.318 526.973 142.875C528.275 145.432 530.086 147.385 532.406 148.734C534.726 150.06 537.437 150.723 540.538 150.723C542.55 150.723 544.385 150.439 546.042 149.87C547.699 149.279 549.132 148.403 550.339 147.243C551.546 146.083 552.47 144.65 553.109 142.946L563.159 144.757C562.354 147.716 560.91 150.308 558.826 152.534C556.767 154.736 554.174 156.452 551.049 157.683C547.948 158.89 544.409 159.494 540.431 159.494Z" fill="white"/>
</svg>
